<?xml version="1.0" standalone="no"?><!DOCTYPE svg PUBLIC "-//W3C//DTD SVG 1.1//EN" "http://www.w3.org/Graphics/SVG/1.1/DTD/svg11.dtd"><svg class="icon" width="200px" height="200.00px" viewBox="0 0 1024 1024" version="1.1" xmlns="http://www.w3.org/2000/svg"><path d="M490.70193778 579.16871111l-79.97098667-93.30232889-33.14688 28.40462223 110.64433778 129.09795555 171.52910222-171.52910222-30.84970666-30.87815111z" fill="#07BFB4" /><path d="M511.97610667-61.44c-316.70158222 0-573.44 256.73841778-573.44 573.44 0 316.70272 256.73841778 573.44 573.44 573.44 316.70272 0 573.44-256.73728 573.44-573.44 0-316.70158222-256.73728-573.44-573.44-573.44zM395.56892445 279.18336H628.38328889v29.10208c0 16.07338667-13.02755555 29.10208-29.10208 29.10208H424.66986667c-16.07338667 0-29.10208-13.02755555-29.10208-29.10208v-29.10208z m349.22382222 407.43025778c0 32.14449778-26.05738667 58.20188445-58.20302222 58.20188444H337.36248889c-32.14336 0-58.20302222-26.05738667-58.20302222-58.20188444V337.38638222c0-32.14336 26.05966222-58.20302222 58.20302222-58.20302222h29.10435556v58.20302222c0 16.07338667 13.02755555 29.10435555 29.10208 29.10435556H628.38328889c16.07338667 0 29.10435555-13.03096889 29.10435556-29.10435556v-58.20302222h29.10208c32.14563555 0 58.20302222 26.05966222 58.20302222 58.20302222v349.22723556z" fill="#07BFB4" /></svg>